<svg width="163" height="42" viewBox="0 0 163 42" fill="none" xmlns="http://www.w3.org/2000/svg">
<rect x="0.5" y="0.5" width="162" height="41" rx="9.5" fill="url(#paint0_linear_120_44)"/>
<rect x="0.5" y="0.5" width="162" height="41" rx="9.5" stroke="url(#paint1_linear_120_44)" style="mix-blend-mode:overlay"/>
<path d="M40.8561 27.176C40.0241 27.176 39.2508 27.032 38.5361 26.744C37.8321 26.4453 37.2081 26.0347 36.6641 25.512C36.1308 24.9787 35.7148 24.3653 35.4161 23.672C35.1281 22.968 34.9841 22.2107 34.9841 21.4C34.9841 20.5893 35.1281 19.8373 35.4161 19.144C35.7148 18.44 36.1308 17.8267 36.6641 17.304C37.2081 16.7707 37.8375 16.36 38.5521 16.072C39.2668 15.7733 40.0348 15.624 40.8561 15.624C41.4428 15.624 42.0135 15.704 42.5681 15.864C43.1335 16.0133 43.6508 16.232 44.1201 16.52C44.6001 16.808 45.0161 17.1547 45.3681 17.56L44.2481 18.712C43.8321 18.2107 43.3255 17.832 42.7281 17.576C42.1308 17.3093 41.5068 17.176 40.8561 17.176C40.2588 17.176 39.7041 17.2827 39.1921 17.496C38.6908 17.7093 38.2535 18.008 37.8801 18.392C37.5068 18.7653 37.2135 19.208 37.0001 19.72C36.7975 20.232 36.6961 20.792 36.6961 21.4C36.6961 21.9973 36.7975 22.552 37.0001 23.064C37.2135 23.576 37.5121 24.024 37.8961 24.408C38.2801 24.792 38.7281 25.0907 39.2401 25.304C39.7521 25.5173 40.3068 25.624 40.9041 25.624C41.5548 25.624 42.1681 25.496 42.7441 25.24C43.3308 24.9733 43.8268 24.6 44.2321 24.12L45.3361 25.24C44.9628 25.6347 44.5361 25.9813 44.0561 26.28C43.5868 26.568 43.0748 26.792 42.5201 26.952C41.9761 27.1013 41.4215 27.176 40.8561 27.176ZM46.7878 27V15.8L48.3878 15.448V19.688C49.0171 19.0267 49.8331 18.696 50.8358 18.696C51.4651 18.696 52.0144 18.8293 52.4838 19.096C52.9638 19.3627 53.3371 19.736 53.6038 20.216C53.8811 20.696 54.0198 21.2507 54.0198 21.88V27H52.4198V22.152C52.4198 21.512 52.2384 21.0107 51.8758 20.648C51.5131 20.2747 51.0171 20.088 50.3878 20.088C49.9611 20.088 49.5771 20.1787 49.2358 20.36C48.8944 20.5413 48.6118 20.8027 48.3878 21.144V27H46.7878ZM59.7699 27.144C58.9699 27.144 58.2445 26.9573 57.5939 26.584C56.9539 26.2107 56.4419 25.704 56.0579 25.064C55.6845 24.424 55.4979 23.7093 55.4979 22.92C55.4979 22.1413 55.6792 21.4373 56.0419 20.808C56.4045 20.168 56.8952 19.6613 57.5139 19.288C58.1325 18.904 58.8205 18.712 59.5779 18.712C60.3352 18.712 61.0072 18.904 61.5939 19.288C62.1805 19.6613 62.6445 20.1733 62.9859 20.824C63.3379 21.464 63.5139 22.1893 63.5139 23V23.448H57.0979C57.1832 23.896 57.3485 24.296 57.5939 24.648C57.8499 25 58.1699 25.2773 58.5539 25.48C58.9485 25.6827 59.3752 25.784 59.8339 25.784C60.2285 25.784 60.6072 25.7253 60.9699 25.608C61.3432 25.48 61.6525 25.2987 61.8979 25.064L62.9219 26.072C62.4419 26.4347 61.9459 26.7067 61.4339 26.888C60.9325 27.0587 60.3779 27.144 59.7699 27.144ZM57.1139 22.248H61.9299C61.8659 21.8213 61.7165 21.448 61.4819 21.128C61.2579 20.7973 60.9752 20.5413 60.6339 20.36C60.3032 20.168 59.9405 20.072 59.5459 20.072C59.1405 20.072 58.7672 20.1627 58.4259 20.344C58.0845 20.5253 57.7965 20.7813 57.5619 21.112C57.3379 21.432 57.1885 21.8107 57.1139 22.248ZM68.893 27.144C68.1143 27.144 67.405 26.9573 66.765 26.584C66.125 26.2107 65.6183 25.704 65.245 25.064C64.8823 24.424 64.701 23.7093 64.701 22.92C64.701 22.1307 64.8877 21.4213 65.261 20.792C65.6343 20.152 66.1357 19.6453 66.765 19.272C67.405 18.888 68.1143 18.696 68.893 18.696C69.5117 18.696 70.1037 18.8133 70.669 19.048C71.245 19.2827 71.741 19.6133 72.157 20.04L71.165 21.144C70.8557 20.8027 70.509 20.5467 70.125 20.376C69.741 20.2053 69.341 20.12 68.925 20.12C68.4343 20.12 67.9863 20.2427 67.581 20.488C67.1863 20.7333 66.8717 21.0693 66.637 21.496C66.4023 21.9227 66.285 22.3973 66.285 22.92C66.285 23.4427 66.4023 23.9173 66.637 24.344C66.8717 24.7707 67.1917 25.112 67.597 25.368C68.0023 25.6133 68.4557 25.736 68.957 25.736C69.373 25.736 69.7623 25.656 70.125 25.496C70.4877 25.3253 70.829 25.08 71.149 24.76L72.125 25.784C71.6983 26.2213 71.2023 26.5573 70.637 26.792C70.0823 27.0267 69.501 27.144 68.893 27.144ZM73.4128 27V15.8L75.0128 15.496V22.424L78.9648 18.856H80.8368L76.6288 22.664L81.0608 27H78.9488L75.0128 23.176V27H73.4128ZM85.3391 27V15.8H87.0191V27H85.3391ZM92.6039 27.144C91.8145 27.144 91.2119 26.9627 90.7959 26.6C90.3799 26.2267 90.1719 25.688 90.1719 24.984V20.2H88.4439V18.856H90.1719V16.776L91.7559 16.392V18.856H94.1559V20.2H91.7559V24.616C91.7559 25.032 91.8465 25.3307 92.0279 25.512C92.2199 25.6827 92.5292 25.768 92.9559 25.768C93.1799 25.768 93.3772 25.752 93.5479 25.72C93.7292 25.688 93.9212 25.64 94.1239 25.576V26.92C93.9105 26.9947 93.6599 27.048 93.3719 27.08C93.0945 27.1227 92.8385 27.144 92.6039 27.144ZM98.8704 27V15.8H100.502L106.758 24.12V15.8H108.342V27H106.87L100.47 18.424V27H98.8704ZM114.316 27.16C113.527 27.16 112.807 26.9733 112.156 26.6C111.516 26.2267 111.009 25.72 110.636 25.08C110.263 24.44 110.076 23.7253 110.076 22.936C110.076 22.1467 110.263 21.432 110.636 20.792C111.009 20.152 111.516 19.6453 112.156 19.272C112.807 18.888 113.527 18.696 114.316 18.696C115.116 18.696 115.836 18.888 116.476 19.272C117.116 19.6453 117.623 20.152 117.996 20.792C118.369 21.432 118.556 22.1467 118.556 22.936C118.556 23.7253 118.369 24.44 117.996 25.08C117.623 25.72 117.116 26.2267 116.476 26.6C115.836 26.9733 115.116 27.16 114.316 27.16ZM114.316 25.752C114.817 25.752 115.271 25.6293 115.676 25.384C116.081 25.128 116.401 24.7867 116.636 24.36C116.871 23.9333 116.988 23.4533 116.988 22.92C116.988 22.3973 116.865 21.928 116.62 21.512C116.385 21.0853 116.065 20.744 115.66 20.488C115.265 20.232 114.817 20.104 114.316 20.104C113.815 20.104 113.361 20.232 112.956 20.488C112.561 20.744 112.241 21.0853 111.996 21.512C111.761 21.928 111.644 22.3973 111.644 22.92C111.644 23.4533 111.761 23.9333 111.996 24.36C112.231 24.7867 112.551 25.128 112.956 25.384C113.361 25.6293 113.815 25.752 114.316 25.752ZM121.433 27L119.161 18.856H120.713L122.297 24.84L124.153 18.856H125.529L127.385 24.84L128.969 18.856H130.473L128.185 27H126.649L124.825 21.032L122.985 27H121.433Z" fill="black"/>
<defs>
<linearGradient id="paint0_linear_120_44" x1="81.5" y1="0" x2="81.5" y2="42" gradientUnits="userSpaceOnUse">
<stop stop-color="#FFFAA7"/>
<stop offset="1" stop-color="#FBBD18"/>
</linearGradient>
<linearGradient id="paint1_linear_120_44" x1="99.4108" y1="5.27197" x2="99.4108" y2="33.0377" gradientUnits="userSpaceOnUse">
<stop stop-color="white" stop-opacity="0.47"/>
<stop offset="0.453125" stop-color="white" stop-opacity="0.546875"/>
<stop offset="1" stop-color="white" stop-opacity="0.39"/>
</linearGradient>
</defs>
</svg>
