<svg width="61" height="284" viewBox="0 0 61 284" fill="none" xmlns="http://www.w3.org/2000/svg">
<rect width="61" height="284" rx="25" fill="url(#paint0_linear_120_42)"/>
<path d="M25 82.343L36.6364 82.343L36.6364 84.451L26.767 84.451L26.767 89.576L25 89.576L25 82.343ZM25 91.4055L36.6364 91.4055L36.6364 98.9737L34.8693 98.9737L34.8693 93.5135L31.7102 93.5135L31.7102 98.5817L29.9432 98.5817L29.9432 93.5135L26.767 93.5135L26.767 99.0192L25 99.0192L25 91.4055ZM25 102.619L25 100.369L36.6364 104.465L36.6364 107.067L25 111.17L25 108.92L34.25 105.812L34.25 105.721L25 102.619ZM29.5625 102.692L29.5625 108.829L27.8693 108.829L27.8693 102.692L29.5625 102.692ZM25 112.702L36.6364 112.702L36.6364 117.066C36.6364 117.96 36.4811 118.71 36.1705 119.316C35.8598 119.926 35.4242 120.386 34.8636 120.697C34.3068 121.011 33.6572 121.168 32.9148 121.168C32.1686 121.168 31.5208 121.009 30.9716 120.691C30.4261 120.377 30.0038 119.913 29.7045 119.299C29.4091 118.685 29.2614 117.932 29.2614 117.038L29.2614 113.93L31.0114 113.93L31.0114 116.754C31.0114 117.276 31.0833 117.704 31.2273 118.038C31.375 118.371 31.589 118.617 31.8693 118.776C32.1534 118.939 32.5019 119.021 32.9148 119.021C33.3276 119.021 33.6799 118.939 33.9716 118.776C34.267 118.613 34.4905 118.365 34.642 118.032C34.7973 117.699 34.875 117.269 34.875 116.742L34.875 114.81L25 114.81L25 112.702ZM30.2727 118.714L25 121.594L25 119.242L30.2727 116.413L30.2727 118.714ZM36.6364 132.671L25 132.671L25 130.796L32.9261 125.313L32.9261 125.217L25 125.217L25 123.109L36.6364 123.109L36.6364 124.995L28.7045 130.472L28.7045 130.575L36.6364 130.575L36.6364 132.671ZM36.6364 138.937L36.6364 141.516L28.2045 144.971L28.2045 145.107L36.6364 148.562L36.6364 151.141L25 151.141L25 149.119L32.9943 149.119L32.9943 149.011L25.0341 145.795L25.0341 144.283L33.0114 141.067L33.0114 140.96L25 140.96L25 138.937L36.6364 138.937ZM30.8182 163.835C29.5644 163.835 28.4905 163.6 27.5966 163.13C26.7064 162.664 26.0246 162.028 25.5511 161.221C25.0776 160.418 24.8409 159.507 24.8409 158.488C24.8409 157.469 25.0776 156.556 25.5511 155.749C26.0284 154.946 26.7121 154.31 27.6023 153.84C28.4962 153.374 29.5682 153.141 30.8182 153.141C32.072 153.141 33.1439 153.374 34.0341 153.84C34.928 154.31 35.6117 154.946 36.0852 155.749C36.5587 156.556 36.7955 157.469 36.7955 158.488C36.7955 159.507 36.5587 160.418 36.0852 161.221C35.6117 162.028 34.928 162.664 34.0341 163.13C33.1439 163.6 32.072 163.835 30.8182 163.835ZM30.8182 161.715C31.7008 161.715 32.4451 161.577 33.0511 161.3C33.661 161.028 34.1212 160.649 34.4318 160.164C34.7462 159.679 34.9034 159.121 34.9034 158.488C34.9034 157.855 34.7462 157.297 34.4318 156.812C34.1212 156.327 33.661 155.946 33.0511 155.67C32.4451 155.397 31.7008 155.261 30.8182 155.261C29.9356 155.261 29.1894 155.397 28.5795 155.67C27.9735 155.946 27.5133 156.327 27.1989 156.812C26.8883 157.297 26.733 157.855 26.733 158.488C26.733 159.121 26.8883 159.679 27.1989 160.164C27.5133 160.649 27.9735 161.028 28.5795 161.3C29.1894 161.577 29.9356 161.715 30.8182 161.715ZM25 165.827L36.6364 165.827L36.6364 170.191C36.6364 171.085 36.4811 171.835 36.1705 172.441C35.8598 173.051 35.4242 173.511 34.8636 173.822C34.3068 174.136 33.6572 174.293 32.9148 174.293C32.1686 174.293 31.5208 174.134 30.9716 173.816C30.4261 173.502 30.0038 173.038 29.7045 172.424C29.4091 171.81 29.2614 171.057 29.2614 170.163L29.2614 167.055L31.0114 167.055L31.0114 169.879C31.0114 170.401 31.0833 170.829 31.2273 171.163C31.375 171.496 31.589 171.742 31.8693 171.901C32.1534 172.064 32.5019 172.146 32.9148 172.146C33.3276 172.146 33.6799 172.064 33.9716 171.901C34.267 171.738 34.4905 171.49 34.642 171.157C34.7973 170.824 34.875 170.394 34.875 169.867L34.875 167.935L25 167.935L25 165.827ZM30.2727 171.839L25 174.719L25 172.367L30.2727 169.538L30.2727 171.839ZM25 176.234L36.6364 176.234L36.6364 183.802L34.8693 183.802L34.8693 178.342L31.7102 178.342L31.7102 183.41L29.9432 183.41L29.9432 178.342L26.767 178.342L26.767 183.847L25 183.847L25 176.234Z" fill="#1E1E1E"/>
<circle cx="31" cy="203" r="8" fill="white"/>
<path d="M27.5 206L33.5 200" stroke="#010101"/>
<path d="M27 200H33.5V206" stroke="#010101"/>
<defs>
<linearGradient id="paint0_linear_120_42" x1="30.5" y1="0" x2="30.5" y2="284" gradientUnits="userSpaceOnUse">
<stop stop-color="#FDD772"/>
<stop offset="1" stop-color="#FBBD18"/>
</linearGradient>
</defs>
</svg>
