<svg width="285" height="63" viewBox="0 0 285 63" fill="none" xmlns="http://www.w3.org/2000/svg">
<rect x="0.224609" y="62.0449" width="61" height="284" rx="25" transform="rotate(-90.2109 0.224609 62.0449)" fill="url(#paint0_linear_120_42)"/>
<path d="M82.4751 36.7411L82.4323 25.1048L84.5402 25.097L84.5766 34.9663L89.7015 34.9474L89.708 36.7144L82.4751 36.7411ZM91.5376 36.7077L91.4947 25.0714L99.0629 25.0436L99.0694 26.8106L93.6092 26.8307L93.6208 29.9898L98.689 29.9711L98.6955 31.7381L93.6273 31.7568L93.639 34.9329L99.1446 34.9126L99.1512 36.6797L91.5376 36.7077ZM102.751 36.6664L100.501 36.6747L104.554 25.0233L107.157 25.0138L111.302 36.6349L109.052 36.6432L105.91 27.4047L105.819 27.4051L102.751 36.6664ZM102.808 32.1037L108.944 32.0811L108.95 33.7743L102.814 33.7969L102.808 32.1037ZM112.834 36.6293L112.791 24.993L117.155 24.977C118.049 24.9737 118.8 25.1262 119.407 25.4346C120.018 25.7429 120.48 26.1769 120.792 26.7363C121.109 27.292 121.268 27.941 121.271 28.6834C121.274 29.4296 121.117 30.0779 120.801 30.6284C120.489 31.175 120.026 31.599 119.414 31.9005C118.801 32.1982 118.048 32.3487 117.154 32.352L114.046 32.3635L114.039 30.6135L116.863 30.6031C117.386 30.6011 117.814 30.5276 118.147 30.3824C118.479 30.2335 118.725 30.0186 118.883 29.7377C119.045 29.453 119.125 29.1042 119.123 28.6913C119.122 28.2785 119.039 27.9265 118.875 27.6354C118.711 27.3406 118.462 27.118 118.128 26.9677C117.794 26.8136 117.364 26.7376 116.838 26.7395L114.906 26.7466L114.942 36.6215L112.834 36.6293ZM118.826 31.3345L121.726 36.5966L119.374 36.6052L116.525 31.343L118.826 31.3345ZM132.76 24.9195L132.803 36.5558L130.928 36.5627L125.416 28.6568L125.319 28.6572L125.348 36.5832L123.24 36.591L123.198 24.9547L125.084 24.9478L130.59 32.8594L130.693 32.859L130.664 24.9272L132.76 24.9195ZM139.026 24.8965L141.605 24.887L145.091 33.306L145.227 33.3055L148.651 24.861L151.23 24.8515L151.273 36.4878L149.25 36.4953L149.221 28.501L149.113 28.5014L145.926 36.4734L144.415 36.479L141.17 28.5136L141.062 28.514L141.091 36.5253L139.068 36.5327L139.026 24.8965ZM163.945 30.623C163.949 31.8767 163.718 32.9515 163.252 33.8471C162.789 34.739 162.155 35.4231 161.35 35.8996C160.549 36.376 159.639 36.6161 158.62 36.6199C157.601 36.6236 156.687 36.3902 155.879 35.9197C155.074 35.4454 154.435 34.764 153.962 33.8756C153.493 32.9834 153.256 31.9123 153.252 30.6623C153.247 29.4085 153.476 28.3357 153.939 27.4439C154.405 26.5482 155.039 25.8621 155.84 25.3857C156.645 24.9093 157.557 24.6692 158.576 24.6654C159.595 24.6616 160.507 24.895 161.312 25.3656C162.12 25.8361 162.759 26.5174 163.228 27.4097C163.701 28.2981 163.94 29.3692 163.945 30.623ZM161.825 30.6308C161.822 29.7482 161.681 29.0044 161.402 28.3993C161.127 27.7905 160.747 27.3317 160.261 27.0229C159.775 26.7102 159.216 26.5551 158.583 26.5574C157.95 26.5598 157.392 26.719 156.909 27.0352C156.425 27.3476 156.046 27.8092 155.772 28.4201C155.501 29.0271 155.368 29.7719 155.371 30.6545C155.374 31.5371 155.513 32.2828 155.788 32.8916C156.067 33.4967 156.449 33.9555 156.935 34.2681C157.421 34.5769 157.981 34.7302 158.613 34.7278C159.246 34.7255 159.804 34.5681 160.288 34.2558C160.771 33.9396 161.148 33.478 161.419 32.8709C161.693 32.26 161.829 31.5133 161.825 30.6308ZM165.959 36.4338L165.916 24.7975L170.28 24.7814C171.174 24.7781 171.924 24.9307 172.531 25.239C173.142 25.5474 173.604 25.9813 173.917 26.5408C174.233 27.0964 174.393 27.7455 174.396 28.4879C174.398 29.2341 174.242 29.8824 173.926 30.4328C173.613 30.9794 173.151 31.4035 172.538 31.705C171.926 32.0027 171.172 32.1532 170.278 32.1565L167.171 32.1679L167.164 30.4179L169.988 30.4075C170.511 30.4056 170.938 30.3321 171.271 30.1869C171.604 30.0379 171.849 29.823 172.007 29.5421C172.169 29.2574 172.249 28.9087 172.248 28.4958C172.246 28.0829 172.164 27.7309 172 27.4399C171.836 27.145 171.587 26.9224 171.253 26.7722C170.919 26.6181 170.489 26.542 169.962 26.544L168.031 26.5511L168.067 36.426L165.959 36.4338ZM171.951 31.1389L174.851 36.401L172.499 36.4097L169.65 31.1474L171.951 31.1389ZM176.365 36.3955L176.322 24.7592L183.89 24.7313L183.897 26.4983L178.437 26.5184L178.448 29.6775L183.517 29.6589L183.523 31.4259L178.455 31.4445L178.467 34.6207L183.972 34.6004L183.979 36.3674L176.365 36.3955Z" fill="#1E1E1E"/>
<circle cx="203.109" cy="30.2987" r="8" transform="rotate(-90.2109 203.109 30.2987)" fill="white"/>
<path d="M206.122 33.7885L200.1 27.8106" stroke="#010101"/>
<path d="M200.124 34.3105L200.1 27.8106L206.1 27.7885" stroke="#010101"/>
<defs>
<linearGradient id="paint0_linear_120_42" x1="30.7246" y1="62.0449" x2="30.7246" y2="346.045" gradientUnits="userSpaceOnUse">
<stop stop-color="#FDD772"/>
<stop offset="1" stop-color="#FBBD18"/>
</linearGradient>
</defs>
</svg>
